# Blender v2.78 (sub 0) OBJ File: ''
# www.blender.org
v 152.880127 172.349274 278.980774
v 189.207352 122.348846 278.980774
v 189.207352 284.152191 278.980774
v 152.880127 234.151703 278.980774
v 306.764496 284.152191 278.980774
v 320.346649 255.822968 234.258835
v 220.347137 288.315460 234.258789
v 158.543289 203.250519 234.259216
v 220.347137 118.185577 234.258789
v 320.346649 150.677948 234.258835
v 247.985931 203.250519 178.980774
v 306.764496 122.348846 278.980774
v 247.985931 103.250519 278.980774
v 343.091705 234.151703 278.980774
v 343.091705 172.349274 278.980774
v 274.272797 284.151703 226.407013
v 179.166962 253.250153 226.407166
v 231.740356 253.249969 193.915344
v 179.166962 153.250824 226.407166
v 195.412964 203.250519 193.915604
v 290.518188 234.151703 193.915375
v 333.050720 203.250519 226.407196
v 274.272797 122.349335 226.407013
v 290.518188 172.349335 193.915375
v 231.740356 153.250946 193.915344
v 247.985931 303.250519 278.980774
v 138.373642 118.043610 226.166290
v 138.193939 158.938385 259.083740
v 165.986603 146.113373 191.444733
v 165.806915 187.008087 224.362183
v 183.021851 100.848297 247.772491
v 182.842163 141.743011 280.689941
v 210.634827 128.917999 213.050949
v 210.455139 169.812775 245.968384
v 352.163727 159.296234 245.968384
v 351.398346 118.408234 213.050964
v 323.909485 131.872101 280.689941
v 323.144043 90.984100 247.772507
v 307.924774 177.518707 224.362183
v 307.159393 136.630707 191.444733
v 279.670532 150.094574 259.083740
v 278.905151 109.206573 226.166306
v 147.461899 224.521698 226.166321
v 148.227280 265.409637 259.083771
v 175.716156 251.945831 191.444748
v 176.481537 292.833832 224.362198
v 191.700806 206.299225 247.772522
v 192.466217 247.187164 280.689941
v 219.955078 233.723358 213.050964
v 220.720459 274.611298 245.968399
v 278.905151 227.747223 226.166306
v 279.670532 268.635223 259.083740
v 307.159393 255.171417 191.444733
v 307.924774 296.059357 224.362183
v 323.144043 209.524750 247.772507
v 323.909485 250.412750 280.689941
v 351.398346 236.948944 213.050964
v 352.163727 277.836884 245.968384
vn 0.0247 -0.9435 -0.3304
vn 0.9050 -0.2680 -0.3304
vn 0.1024 0.3151 -0.9435
vn -0.2680 0.1947 -0.9435
vn -0.2680 -0.1947 -0.9435
vn 0.7002 -0.2680 -0.6617
vn 0.1024 -0.3151 -0.9435
vn -0.8897 -0.3151 -0.3304
vn -0.5746 0.7488 -0.3304
vn 0.5346 0.7779 -0.3304
vn 0.8026 -0.5831 -0.1256
vn -0.3066 -0.9435 -0.1256
vn -0.9921 0.0000 -0.1256
vn -0.3066 0.9435 -0.1256
vn 0.8026 0.5831 -0.1256
vn 0.3035 0.9342 -0.1876
vn 0.0247 0.9435 -0.3304
vn -0.7947 0.5773 -0.1876
vn -0.8897 0.3151 -0.3304
vn -0.7947 -0.5773 -0.1876
vn -0.5746 -0.7488 -0.3304
vn -0.0385 -0.7488 -0.6617
vn 0.1876 -0.5773 -0.7947
vn 0.4713 -0.5831 -0.6617
vn 0.7002 0.2680 -0.6617
vn 0.6071 0.0000 -0.7947
vn 0.3313 0.0000 -0.9435
vn -0.7240 -0.1947 -0.6617
vn -0.4911 -0.3568 -0.7947
vn -0.4089 -0.6284 -0.6617
vn -0.4089 0.6284 -0.6617
vn -0.4911 0.3568 -0.7947
vn -0.7240 0.1947 -0.6617
vn 0.4713 0.5831 -0.6617
vn 0.1876 0.5773 -0.7947
vn -0.0385 0.7488 -0.6617
vn 0.9822 0.0000 -0.1876
vn 0.9050 0.2680 -0.3304
vn 0.3035 -0.9342 -0.1876
vn 0.5346 -0.7779 -0.3304
vn -0.8505 0.3275 -0.4116
vn 0.5260 0.5347 -0.6614
vn 0.8505 -0.3275 0.4116
vn -0.5260 -0.5347 0.6614
vn 0.0034 -0.7790 -0.6270
vn -0.0034 0.7790 0.6270
vn -0.0146 -0.7789 -0.6270
vn 0.5382 0.5224 -0.6614
vn -0.8427 0.3471 -0.4116
vn -0.5382 -0.5224 0.6614
vn 0.0146 0.7789 0.6270
vn 0.8427 -0.3471 0.4116
s off
f 9//1 23//1 13//1
f 10//2 22//2 15//2
f 11//3 18//3 21//3
f 11//4 20//4 18//4
f 11//5 25//5 20//5
f 10//6 24//6 22//6
f 11//7 24//7 25//7
f 8//8 19//8 1//8
f 7//9 17//9 3//9
f 6//10 16//10 5//10
f 10//11 15//11 12//11
f 9//12 13//12 2//12
f 8//13 1//13 4//13
f 7//14 3//14 26//14
f 6//15 5//15 14//15
f 5//16 16//16 26//16
f 16//17 7//17 26//17
f 3//18 17//18 4//18
f 17//19 8//19 4//19
f 1//20 19//20 2//20
f 19//21 9//21 2//21
f 25//22 23//22 9//22
f 25//23 24//23 23//23
f 24//24 10//24 23//24
f 22//25 21//25 6//25
f 22//26 24//26 21//26
f 24//27 11//27 21//27
f 20//28 19//28 8//28
f 20//29 25//29 19//29
f 25//30 9//30 19//30
f 18//31 17//31 7//31
f 18//32 20//32 17//32
f 20//33 8//33 17//33
f 21//34 16//34 6//34
f 21//35 18//35 16//35
f 18//36 7//36 16//36
f 15//37 22//37 14//37
f 22//38 6//38 14//38
f 13//39 23//39 12//39
f 23//40 10//40 12//40
f 27//41 30//41 29//41
f 30//42 33//42 29//42
f 34//43 31//43 33//43
f 31//44 28//44 27//44
f 29//45 31//45 27//45
f 30//46 32//46 34//46
f 40//47 38//47 42//47
f 39//48 36//48 40//48
f 42//49 39//49 40//49
f 38//50 41//50 42//50
f 39//51 37//51 35//51
f 35//52 38//52 36//52
f 43//49 46//49 45//49
f 46//48 49//48 45//48
f 50//52 47//52 49//52
f 48//50 43//50 47//50
f 49//47 43//47 45//47
f 46//51 48//51 50//51
f 51//49 54//49 53//49
f 54//48 57//48 53//48
f 58//52 55//52 57//52
f 55//50 52//50 51//50
f 57//47 51//47 53//47
f 54//51 56//51 58//51
f 27//41 28//41 30//41
f 30//42 34//42 33//42
f 34//43 32//43 31//43
f 31//44 32//44 28//44
f 29//45 33//45 31//45
f 30//46 28//46 32//46
f 40//47 36//47 38//47
f 39//48 35//48 36//48
f 42//49 41//49 39//49
f 38//50 37//50 41//50
f 39//51 41//51 37//51
f 35//52 37//52 38//52
f 43//49 44//49 46//49
f 46//48 50//48 49//48
f 50//52 48//52 47//52
f 48//50 44//50 43//50
f 49//47 47//47 43//47
f 46//51 44//51 48//51
f 51//49 52//49 54//49
f 54//48 58//48 57//48
f 58//52 56//52 55//52
f 55//50 56//50 52//50
f 57//47 55//47 51//47
f 54//51 52//51 56//51
