# Blender v2.78 (sub 0) OBJ File: ''
# www.blender.org
mtllib rasterTest.mtl
v 208.600739 102.206467 200.100464
v 456.013885 102.206467 200.100464
v 208.600739 302.206482 200.100464
v 456.013885 302.206482 200.100464
v 332.307312 102.206467 180.478149
v 332.307312 302.206482 180.478149
v 94.410934 102.206467 250.616760
v 570.203674 102.206467 250.616760
v 94.410934 302.206482 250.616760
v 570.203674 302.206482 250.616760
vn 0.1567 0.0000 -0.9877
vn -0.1567 0.0000 -0.9877
vn 0.4046 0.0000 -0.9145
vn -0.4046 0.0000 -0.9145
usemtl None
s off
f 6//1 2//1 5//1
f 3//2 5//2 1//2
f 10//3 2//3 4//3
f 7//4 3//4 1//4
f 6//1 4//1 2//1
f 3//2 6//2 5//2
f 10//3 8//3 2//3
f 7//4 9//4 3//4
